<?xml version="1.0" encoding="UTF-8" standalone="no"?>
<svg width="12px" height="86px" viewBox="0 0 12 86" version="1.1" xmlns="http://www.w3.org/2000/svg" xmlns:xlink="http://www.w3.org/1999/xlink">
    <!-- Generator: Sketch 3.7.2 (28276) - http://www.bohemiancoding.com/sketch -->
    <title>Slice 1</title>
    <desc>Created with Sketch.</desc>
    <defs>
        <path d="M6,279 C116.45695,279 206,189.45695 206,79 C206,-31.45695 116.45695,-121 6,-121 C-104.45695,-121 -194,-31.45695 -194,79 C-194,189.45695 -104.45695,279 6,279 Z M6,249 C99.8884075,249 176,172.888407 176,79 C176,-14.8884075 99.8884075,-91 6,-91 C-87.8884075,-91 -164,-14.8884075 -164,79 C-164,172.888407 -87.8884075,249 6,249 Z" id="path-1"></path>
    </defs>
    <g id="Page-1" stroke="none" stroke-width="1" fill="none" fill-rule="evenodd">
        <mask id="mask-2" fill="white">
            <use xlink:href="#path-1"></use>
        </mask>
        <g id="Mask"></g>
        <circle id="Oval-3" stroke="#979797" stroke-width="2" cx="6" cy="80" r="5"></circle>
        <g id="Hour-Hand" transform="translate(5.000000, 3.000000)" stroke="#979797">
            <path d="M1,70 L1,25" id="Line" stroke-width="2" stroke-linecap="square"></path>
            <path d="M1,63 L1,0" id="Line" stroke-width="6" stroke-linecap="round"></path>
        </g>
    </g>
</svg>