<?xml version="1.0" encoding="UTF-8" standalone="no"?>
<svg width="12px" height="177px" viewBox="0 0 12 177" version="1.1" xmlns="http://www.w3.org/2000/svg" xmlns:xlink="http://www.w3.org/1999/xlink">
    <!-- Generator: Sketch 3.7.2 (28276) - http://www.bohemiancoding.com/sketch -->
    <title>Slice 1</title>
    <desc>Created with Sketch.</desc>
    <defs>
        <path d="M6,370 C116.45695,370 206,280.45695 206,170 C206,59.54305 116.45695,-30 6,-30 C-104.45695,-30 -194,59.54305 -194,170 C-194,280.45695 -104.45695,370 6,370 Z M6,340 C99.8884075,340 176,263.888407 176,170 C176,76.1115925 99.8884075,0 6,0 C-87.8884075,0 -164,76.1115925 -164,170 C-164,263.888407 -87.8884075,340 6,340 Z" id="path-1"></path>
    </defs>
    <g id="Page-1" stroke="none" stroke-width="1" fill="none" fill-rule="evenodd">
        <mask id="mask-2" fill="white">
            <use xlink:href="#path-1"></use>
        </mask>
        <g id="Mask"></g>
        <circle id="Oval-3" stroke="#979797" stroke-width="2" cx="6" cy="171" r="5"></circle>
        <g id="Hour-Hand" transform="translate(5.000000, 3.000000)" stroke="#979797">
            <path d="M1,161.5 L1,116.5" id="Line" stroke-width="2" stroke-linecap="square"></path>
            <path d="M1,154.5 L1,0.5" id="Line" stroke-width="6" stroke-linecap="round"></path>
        </g>
    </g>
</svg>